<svg width="130" height="130" viewBox="0 0 130 130" fill="none" xmlns="http://www.w3.org/2000/svg">
<rect width="130" height="130" rx="4" fill="#8F9BB3" fill-opacity="0.08"/>
<rect x="0.5" y="0.5" width="129" height="129" rx="3.5" fill="#C9E7E5" stroke="#E4E9F2"/>
<g opacity="0.48">
<path fill-rule="evenodd" clip-rule="evenodd" d="M63 62.8333C61.6217 62.8333 60.5 61.7117 60.5 60.3333C60.5 58.955 61.6217 57.8333 63 57.8333C64.3783 57.8333 65.5 58.955 65.5 60.3333C65.5 61.7117 64.3783 62.8333 63 62.8333ZM63 54.5C59.7833 54.5 57.1667 57.1167 57.1667 60.3333C57.1667 63.55 59.7833 66.1667 63 66.1667C66.2167 66.1667 68.8333 63.55 68.8333 60.3333C68.8333 57.1167 66.2167 54.5 63 54.5ZM76.3333 67C76.3333 67.9183 75.5867 68.6667 74.6667 68.6667H51.3333C50.4133 68.6667 49.6667 67.9183 49.6667 67V53.6667C49.6667 52.7483 50.4133 52 51.3333 52H74.6667C75.5867 52 76.3333 52.7483 76.3333 53.6667V67ZM59.6667 46.1667C59.6667 45.7067 60.0417 45.3333 60.5 45.3333H65.5C65.9583 45.3333 66.3333 45.7067 66.3333 46.1667V48.6667H59.6667V46.1667ZM74.6667 48.6667H69.6667V46.1667C69.6667 43.87 67.7983 42 65.5 42H60.5C58.2017 42 56.3333 43.87 56.3333 46.1667V48.6667H51.3333C48.5767 48.6667 46.3333 50.91 46.3333 53.6667V67C46.3333 69.7567 48.5767 72 51.3333 72H74.6667C77.4233 72 79.6667 69.7567 79.6667 67V53.6667C79.6667 50.91 77.4233 48.6667 74.6667 48.6667Z" fill="#8F9BB3"/>
<mask id="mask0_0_147" style="mask-type:alpha" maskUnits="userSpaceOnUse" x="46" y="42" width="34" height="30">
<path fill-rule="evenodd" clip-rule="evenodd" d="M63 62.8333C61.6217 62.8333 60.5 61.7117 60.5 60.3333C60.5 58.955 61.6217 57.8333 63 57.8333C64.3783 57.8333 65.5 58.955 65.5 60.3333C65.5 61.7117 64.3783 62.8333 63 62.8333ZM63 54.5C59.7833 54.5 57.1667 57.1167 57.1667 60.3333C57.1667 63.55 59.7833 66.1667 63 66.1667C66.2167 66.1667 68.8333 63.55 68.8333 60.3333C68.8333 57.1167 66.2167 54.5 63 54.5ZM76.3333 67C76.3333 67.9183 75.5867 68.6667 74.6667 68.6667H51.3333C50.4133 68.6667 49.6667 67.9183 49.6667 67V53.6667C49.6667 52.7483 50.4133 52 51.3333 52H74.6667C75.5867 52 76.3333 52.7483 76.3333 53.6667V67ZM59.6667 46.1667C59.6667 45.7067 60.0417 45.3333 60.5 45.3333H65.5C65.9583 45.3333 66.3333 45.7067 66.3333 46.1667V48.6667H59.6667V46.1667ZM74.6667 48.6667H69.6667V46.1667C69.6667 43.87 67.7983 42 65.5 42H60.5C58.2017 42 56.3333 43.87 56.3333 46.1667V48.6667H51.3333C48.5767 48.6667 46.3333 50.91 46.3333 53.6667V67C46.3333 69.7567 48.5767 72 51.3333 72H74.6667C77.4233 72 79.6667 69.7567 79.6667 67V53.6667C79.6667 50.91 77.4233 48.6667 74.6667 48.6667Z" fill="white"/>
</mask>
<g mask="url(#mask0_0_147)">
</g>
<path d="M23.1328 82.7949C23.1328 82.4121 22.9883 82.1074 22.6992 81.8809C22.4102 81.6543 22.0176 81.541 21.5215 81.541C21.0957 81.541 20.7402 81.6543 20.4551 81.8809C20.1699 82.1035 20.0273 82.3926 20.0273 82.748H18.5508C18.5508 82.2832 18.6797 81.8691 18.9375 81.5059C19.1953 81.1426 19.5527 80.8613 20.0098 80.6621C20.4668 80.459 20.9707 80.3574 21.5215 80.3574C22.498 80.3574 23.2559 80.5703 23.7949 80.9961C24.3379 81.4219 24.6094 82.0176 24.6094 82.7832C24.6094 83.1699 24.4922 83.5254 24.2578 83.8496C24.0234 84.1738 23.6953 84.4297 23.2734 84.6172C23.75 84.7812 24.1133 85.0312 24.3633 85.3672C24.6172 85.6992 24.7441 86.1133 24.7441 86.6094C24.7441 87.375 24.4512 87.9844 23.8652 88.4375C23.2793 88.8867 22.498 89.1113 21.5215 89.1113C20.9199 89.1113 20.375 89.0039 19.8867 88.7891C19.4023 88.5742 19.0371 88.2812 18.791 87.9102C18.5488 87.5391 18.4277 87.1133 18.4277 86.6328H19.9043C19.9043 87 20.0566 87.3105 20.3613 87.5645C20.666 87.8145 21.0527 87.9395 21.5215 87.9395C22.0449 87.9395 22.4648 87.8164 22.7812 87.5703C23.1016 87.3242 23.2617 87.0039 23.2617 86.6094C23.2617 86.1289 23.1211 85.7812 22.8398 85.5664C22.5625 85.3477 22.1543 85.2383 21.6152 85.2383H20.6133V84.0664H21.5625C22.6094 84.0664 23.1328 83.6426 23.1328 82.7949ZM30.1715 89C30.109 88.8789 30.0543 88.6816 30.0074 88.4082C29.5543 88.8809 28.9996 89.1172 28.3434 89.1172C27.7066 89.1172 27.1871 88.9355 26.7848 88.5723C26.3824 88.209 26.1813 87.7598 26.1813 87.2246C26.1813 86.5488 26.4313 86.0312 26.9313 85.6719C27.4352 85.3086 28.1539 85.127 29.0875 85.127H29.9605V84.7109C29.9605 84.3828 29.8688 84.1211 29.6852 83.9258C29.5016 83.7266 29.2223 83.627 28.8473 83.627C28.523 83.627 28.2574 83.709 28.0504 83.873C27.8434 84.0332 27.7398 84.2383 27.7398 84.4883H26.316C26.316 84.1406 26.4313 83.8164 26.6617 83.5156C26.8922 83.2109 27.2047 82.9727 27.5992 82.8008C27.9977 82.6289 28.441 82.543 28.9293 82.543C29.6715 82.543 30.2633 82.7305 30.7047 83.1055C31.1461 83.4766 31.3727 84 31.3844 84.6758V87.5352C31.3844 88.1055 31.4645 88.5605 31.6246 88.9004V89H30.1715ZM28.607 87.9746C28.8883 87.9746 29.152 87.9062 29.398 87.7695C29.648 87.6328 29.8355 87.4492 29.9605 87.2188V86.0234H29.193C28.6656 86.0234 28.2691 86.1152 28.0035 86.2988C27.7379 86.4824 27.6051 86.7422 27.6051 87.0781C27.6051 87.3516 27.6949 87.5703 27.8746 87.7344C28.0582 87.8945 28.3023 87.9746 28.607 87.9746ZM37.4973 83.8086H34.7434V89H33.3254V82.6602H37.4973V83.8086ZM44.2547 85.8945C44.2547 86.875 44.032 87.6582 43.5867 88.2441C43.1414 88.8262 42.5438 89.1172 41.7938 89.1172C41.0984 89.1172 40.5418 88.8887 40.1238 88.4316V91.4375H38.7V82.6602H40.0125L40.0711 83.3047C40.4891 82.7969 41.0574 82.543 41.7762 82.543C42.5496 82.543 43.1551 82.832 43.5926 83.4102C44.034 83.9844 44.2547 84.7832 44.2547 85.8066V85.8945ZM42.8367 85.7715C42.8367 85.1387 42.7098 84.6367 42.4559 84.2656C42.2059 83.8945 41.8465 83.709 41.3777 83.709C40.7957 83.709 40.3777 83.9492 40.1238 84.4297V87.2422C40.3816 87.7344 40.8035 87.9805 41.3895 87.9805C41.8426 87.9805 42.1961 87.7988 42.45 87.4355C42.7078 87.0684 42.8367 86.5137 42.8367 85.7715ZM48.0121 86.9609L49.3012 82.6602H50.8188L48.2992 89.9609C47.9125 91.0273 47.2563 91.5605 46.3305 91.5605C46.1234 91.5605 45.8949 91.5254 45.6449 91.4551V90.3535L45.9145 90.3711C46.2738 90.3711 46.5434 90.3047 46.723 90.1719C46.9066 90.043 47.0512 89.8242 47.1566 89.5156L47.3617 88.9707L45.1352 82.6602H46.6703L48.0121 86.9609ZM56.8438 84.3945C56.8438 84.6758 56.7578 84.9355 56.5859 85.1738C56.418 85.4082 56.1797 85.5957 55.8711 85.7363C56.5977 85.9902 56.9609 86.4805 56.9609 87.207C56.9609 87.7891 56.7246 88.2539 56.252 88.6016C55.7793 88.9453 55.1465 89.1172 54.3535 89.1172C53.8691 89.1172 53.4277 89.0371 53.0293 88.877C52.6309 88.7129 52.3203 88.4824 52.0977 88.1855C51.875 87.8848 51.7637 87.5293 51.7637 87.1191H53.1816C53.1816 87.377 53.2969 87.5938 53.5273 87.7695C53.7578 87.9414 54.0488 88.0273 54.4004 88.0273C54.748 88.0273 55.0234 87.9473 55.2266 87.7871C55.4336 87.623 55.5371 87.4102 55.5371 87.1484C55.5371 86.8398 55.4473 86.6172 55.2676 86.4805C55.0879 86.3438 54.8105 86.2754 54.4355 86.2754H53.416V85.25H54.4707C55.1074 85.2422 55.4258 84.9805 55.4258 84.4648C55.4258 84.207 55.334 84.0059 55.1504 83.8613C54.9668 83.7168 54.7148 83.6445 54.3945 83.6445C54.082 83.6445 53.8184 83.7227 53.6035 83.8789C53.3887 84.0312 53.2812 84.2246 53.2812 84.459H51.8633C51.8633 83.9004 52.0977 83.4434 52.5664 83.0879C53.0352 82.7285 53.6309 82.5488 54.3535 82.5488C55.1387 82.5488 55.75 82.709 56.1875 83.0293C56.625 83.3496 56.8438 83.8047 56.8438 84.3945ZM62.5289 82.6602H63.9469V89H62.5289V84.7695L60.0445 89H58.6266V82.6602H60.0445V86.8906L62.5289 82.6602ZM70.8508 83.791H68.7941V89H67.3703V83.791H65.3371V82.6602H70.8508V83.791ZM73.7352 84.6758H75.1297C75.6492 84.6758 76.1023 84.7656 76.4891 84.9453C76.8758 85.125 77.1688 85.377 77.368 85.7012C77.5711 86.0254 77.6727 86.4023 77.6727 86.832C77.6727 87.4844 77.4422 88.0078 76.9813 88.4023C76.5203 88.7969 75.907 88.9961 75.1414 89H72.3113V82.6602H73.7352V84.6758ZM73.7352 85.8184V87.8633H75.1238C75.4715 87.8633 75.7449 87.7773 75.9441 87.6055C76.1473 87.4297 76.2488 87.1816 76.2488 86.8613C76.2488 86.541 76.1492 86.2891 75.95 86.1055C75.7547 85.918 75.4891 85.8223 75.1531 85.8184H73.7352ZM82.3633 85.918C82.3633 84.8828 82.5664 84.0625 82.9727 83.457C83.3828 82.8477 83.9531 82.543 84.6836 82.543C84.9805 82.543 85.25 82.5977 85.4922 82.707V80H86.9102V82.7305C87.1602 82.6055 87.4531 82.543 87.7891 82.543C88.5156 82.543 89.084 82.8457 89.4941 83.4512C89.9082 84.0527 90.1152 84.916 90.1152 86.041C90.1152 86.9902 89.9082 87.7402 89.4941 88.291C89.0801 88.8418 88.5156 89.1172 87.8008 89.1172C87.4766 89.1172 87.1797 89.0586 86.9102 88.9414V91.4375H85.4922V88.9648C85.2539 89.0664 84.9805 89.1172 84.6719 89.1172C83.9883 89.1172 83.4414 88.8652 83.0312 88.3613C82.625 87.8535 82.4043 87.1562 82.3691 86.2695L82.3633 85.918ZM88.6914 85.918C88.6914 85.207 88.5781 84.6582 88.3516 84.2715C88.125 83.8809 87.8047 83.6855 87.3906 83.6855C87.2148 83.6855 87.0547 83.7109 86.9102 83.7617V87.9219C87.0391 87.9609 87.2031 87.9805 87.4023 87.9805C88.2617 87.9805 88.6914 87.293 88.6914 85.918ZM83.7812 86.041C83.7812 86.6738 83.8867 87.1562 84.0977 87.4883C84.3086 87.8164 84.6211 87.9805 85.0352 87.9805C85.2109 87.9805 85.3633 87.9609 85.4922 87.9219V83.7441C85.3594 83.7051 85.2109 83.6855 85.0469 83.6855C84.6406 83.6855 84.3281 83.875 84.1094 84.2539C83.8906 84.6289 83.7812 85.2246 83.7812 86.041ZM91.4762 85.7715C91.4762 85.1504 91.5992 84.5918 91.8453 84.0957C92.0914 83.5957 92.4371 83.2129 92.8824 82.9473C93.3277 82.6777 93.8395 82.543 94.4176 82.543C95.273 82.543 95.9664 82.8184 96.4977 83.3691C97.0328 83.9199 97.3219 84.6504 97.3648 85.5605L97.3707 85.8945C97.3707 86.5195 97.2496 87.0781 97.0074 87.5703C96.7691 88.0625 96.4254 88.4434 95.9762 88.7129C95.5309 88.9824 95.0152 89.1172 94.4293 89.1172C93.5348 89.1172 92.818 88.8203 92.2789 88.2266C91.7438 87.6289 91.4762 86.834 91.4762 85.8418V85.7715ZM92.9 85.8945C92.9 86.5469 93.0348 87.0586 93.3043 87.4297C93.5738 87.7969 93.9488 87.9805 94.4293 87.9805C94.9098 87.9805 95.2828 87.793 95.5484 87.418C95.818 87.043 95.9527 86.4941 95.9527 85.7715C95.9527 85.1309 95.8141 84.623 95.5367 84.248C95.2633 83.873 94.8902 83.6855 94.4176 83.6855C93.9527 83.6855 93.5836 83.8711 93.3102 84.2422C93.0367 84.6094 92.9 85.1602 92.9 85.8945ZM103.788 83.791H101.732V89H100.308V83.791H98.2746V82.6602H103.788V83.791ZM104.698 85.7715C104.698 85.1504 104.821 84.5918 105.067 84.0957C105.313 83.5957 105.659 83.2129 106.104 82.9473C106.55 82.6777 107.061 82.543 107.639 82.543C108.495 82.543 109.188 82.8184 109.72 83.3691C110.255 83.9199 110.544 84.6504 110.587 85.5605L110.593 85.8945C110.593 86.5195 110.471 87.0781 110.229 87.5703C109.991 88.0625 109.647 88.4434 109.198 88.7129C108.753 88.9824 108.237 89.1172 107.651 89.1172C106.757 89.1172 106.04 88.8203 105.501 88.2266C104.966 87.6289 104.698 86.834 104.698 85.8418V85.7715ZM106.122 85.8945C106.122 86.5469 106.257 87.0586 106.526 87.4297C106.796 87.7969 107.171 87.9805 107.651 87.9805C108.132 87.9805 108.505 87.793 108.77 87.418C109.04 87.043 109.175 86.4941 109.175 85.7715C109.175 85.1309 109.036 84.623 108.759 84.248C108.485 83.873 108.112 83.6855 107.639 83.6855C107.175 83.6855 106.805 83.8711 106.532 84.2422C106.259 84.6094 106.122 85.1602 106.122 85.8945Z" fill="#8F9BB3"/>
</g>
</svg>
